#!OML:ASF X:\für Bonn\!DataBase\2005_08_12_Daniel\c3d\Daniel.ASF
:FULLY-SPECIFIED
:DEGREES
263
root 17.931 2.04539 0.149355 -1731.28 260.682 166.74
lowerback 38.337 -3.00524 1.04362
upperback 15.6072 -5.60187 -4.16818
thorax -1.93929 -3.67078 -2.97233
lowerneck 10.2607 3.19181 -1.63621
upperneck 6.4445 3.93867 -1.11415
head 0.306263 1.85633 -0.178307
rclavicle -3.02153e-014 -1.98785e-014
rhumerus -408.275 41.4786 263.599
rradius 51.7455
rwrist 2.85139
rhand -42.7063 757.684
rfingers 7.12502
rthumb -15.5755 728.292
lclavicle -3.02153e-014 -1.98785e-014
lhumerus -543.274 183.549 -480.755
lradius 64.3075
lwrist 0.40108
lhand -8.68494 -725.928
lfingers 7.12502
lthumb 17.2497 23.3259
rfemur -575.435 -177.898 552.922
rtibia 77.2843
rfoot 3.52042 -8.22224
rtoes 30.8747
lfemur -6.29285 740.422 -19.8659
ltibia 85.3431
lfoot 11.8755 481.012
ltoes -32.9433
264
root 17.9355 2.0726 0.162862 -1729.99 260.633 165.294
lowerback 38.293 -3.0229 0.950783
upperback 15.1748 -5.60464 -4.08551
thorax -2.38732 -3.64303 -2.81023
lowerneck 9.90947 3.08338 -1.56175
upperneck 6.05184 3.82485 -1.29507
head 0.24527 1.81264 -0.240037
rclavicle -7.95139e-016 -1.63003e-014
rhumerus -407.254 40.876 265.124
rradius 53.5021
rwrist 3.20139
rhand -42.4513 757.39
rfingers 7.12502
rthumb -15.3299 727.979
lclavicle -7.95139e-016 -1.63003e-014
lhumerus -543.143 183.955 -480.847
lradius 66.1388
lwrist 0.960117
lhand -9.26117 -726.175
lfingers 7.12502
lthumb 16.695 23.1268
rfemur -576.209 -177.888 552.582
rtibia 77.2223
rfoot 3.65595 -7.89521
rtoes 30.8792
lfemur -6.43509 740.317 -19.9122
ltibia 85.6949
lfoot 12.8802 480.571
ltoes -33.0529
265
root 17.9401 2.09989 0.181339 -1728.95 260.581 164.089
lowerback 38.3276 -3.06671 0.930369
upperback 14.7253 -5.61872 -4.03523
thorax -2.88778 -3.61582 -2.71068
lowerneck 9.65181 2.99007 -1.47871
upperneck 5.53664 3.72651 -1.48584
head 0.131656 1.77886 -0.309587
rclavicle 5.88403e-014 -6.36111e-015
rhumerus -406.304 40.1565 266.604
rradius 55.3652
rwrist 3.5294
rhand -42.3436 756.985
rfingers 7.12502
rthumb -15.2262 727.565
lclavicle 5.88403e-014 -6.36111e-015
lhumerus -543.141 184.35 -480.99
lradius 68.0959
lwrist 1.47282
lhand -9.83417 -726.419
lfingers 7.12502
lthumb 16.1433 22.9289
rfemur -576.948 -177.817 552.23
rtibia 77.16
rfoot 3.75117 -7.41946
rtoes 30.6284
lfemur -6.54577 740.248 -19.9813
ltibia 86.0183
lfoot 13.4634 480.181
ltoes -33.1174
266
root 17.9536 2.12535 0.197332 -1727.82 260.527 162.829
lowerback 38.3721 -3.09938 0.87378
upperback 14.2808 -5.63414 -3.97101
thorax -3.38141 -3.59246 -2.57838
lowerneck 9.38851 2.90796 -1.40121
upperneck 4.96923 3.63997 -1.67513
head 0.00232579 1.75151 -0.378881
rclavicle 7.31528e-014 -6.20208e-014
rhumerus -405.398 39.4307 268.042
rradius 57.3706
rwrist 3.71049
rhand -42.3788 756.488
rfingers 7.12502
rthumb -15.26 727.071
lclavicle 7.31528e-014 -6.20208e-014
lhumerus -543.205 184.734 -481.192
lradius 70.1679
lwrist 2.01833
lhand -10.5209 -726.625
lfingers 7.12502
lthumb 15.482 22.7751
rfemur -577.618 -177.768 551.891
rtibia 77.0463
rfoot 3.64305 -6.86165
rtoes 30.4391
lfemur -6.78274 740.197 -20.0499
ltibia 86.3849
lfoot 14.281 479.83
ltoes -33.3144
267
root 17.9691 2.14888 0.20913 -1726.83 260.477 161.701
lowerback 38.4904 -3.11286 0.79512
upperback 13.8278 -5.63713 -3.90426
thorax -3.90513 -3.56435 -2.43328
lowerneck 9.25271 2.83418 -1.31473
upperneck 4.24372 3.55711 -1.88199
head -0.197072 1.72884 -0.459405
rclavicle -4.69132e-014 -3.77691e-015
rhumerus -404.534 38.5934 269.416
rradius 59.4057
rwrist 3.87749
rhand -42.5464 755.979
rfingers 7.12502
rthumb -15.4215 726.574
lclavicle -4.69132e-014 -3.77691e-015
lhumerus -543.358 185.106 -481.434
lradius 72.3359
lwrist 2.4663
lhand -11.2037 -726.791
lfingers 7.12502
lthumb 14.8242 22.659
rfemur -578.222 -177.742 551.598
rtibia 76.9152
rfoot 3.38117 -6.25525
rtoes 30.2194
lfemur -7.01642 740.241 -20.0083
ltibia 86.7833
lfoot 15.4602 479.399
ltoes -33.3783
268
root 17.9873 2.1711 0.220661 -1725.82 260.411 160.584
lowerback 38.6304 -3.13654 0.736622
upperback 13.3747 -5.64917 -3.86265
thorax -4.44069 -3.53887 -2.32125
lowerneck 9.14986 2.7779 -1.27202
upperneck 3.4871 3.48827 -2.03145
head -0.414479 1.71225 -0.517107
rclavicle 1.82882e-014 -1.0138e-013
rhumerus -403.721 37.7003 270.704
rradius 61.4494
rwrist 3.91235
rhand -42.7963 755.661
rfingers 7.12502
rthumb -15.6622 726.275
lclavicle 1.82882e-014 -1.0138e-013
lhumerus -543.515 185.485 -481.756
lradius 74.5773
lwrist 2.98001
lhand -11.8527 -726.879
lfingers 7.12502
lthumb 14.1989 22.6156
rfemur -578.808 -177.711 551.3
rtibia 76.7747
rfoot 3.03375 -5.59133
rtoes 30.1404
lfemur -7.26868 740.309 -19.9733
ltibia 87.1798
lfoot 16.6955 478.964
ltoes -33.4064
269
root 18.0043 2.19172 0.231709 -1724.94 260.375 159.598
lowerback 38.8239 -3.18007 0.745587
upperback 12.9057 -5.66426 -3.84047
thorax -5.01831 -3.51132 -2.26021
lowerneck 9.17229 2.7321 -1.27285
upperneck 2.64867 3.42123 -2.12891
head -0.681792 1.69669 -0.555327
rclavicle 2.8625e-014 1.16687e-013
rhumerus -403.066 36.7462 271.878
rradius 63.6004
rwrist 3.94373
rhand -43.1039 755.426
rfingers 7.12502
rthumb -15.9584 726.063
lclavicle 2.8625e-014 1.16687e-013
lhumerus -543.711 185.898 -482.168
lradius 76.8933
lwrist 3.58501
lhand -12.5323 -726.952
lfingers 7.12502
lthumb 13.544 22.5876
rfemur -579.366 -177.666 551.062
rtibia 76.6179
rfoot 2.65028 -4.92552
rtoes 30.0373
lfemur -7.48659 740.44 -19.8463
ltibia 87.569
lfoot 17.6665 478.492
ltoes -33.525
270
root 18.0199 2.21217 0.243056 -1724.1 260.303 158.674
lowerback 38.9845 -3.21524 0.727077
upperback 12.4834 -5.68268 -3.81745
thorax -5.53253 -3.48956 -2.18813
lowerneck 9.17295 2.71051 -1.37833
upperneck 1.7797 3.37369 -2.17541
head -0.959856 1.68938 -0.561384
rclavicle 1.82882e-014 -5.9039e-014
rhumerus -402.394 35.8493 273.062
rradius 65.788
rwrist 3.85318
rhand -43.4361 755.434
rfingers 7.12502
rthumb -16.2783 726.097
lclavicle 1.82882e-014 -5.9039e-014
lhumerus -543.891 186.225 -482.587
lradius 79.2783
lwrist 4.24976
lhand -13.2344 -727.02
lfingers 7.12502
lthumb 12.8672 22.5639
rfemur -579.947 -177.601 550.812
rtibia 76.4642
rfoot 2.26952 -4.32392
rtoes 29.7546
lfemur -7.65446 740.681 -19.6748
ltibia 87.929
lfoot 18.1419 477.997
ltoes -33.7993
271
root 18.0362 2.23113 0.253854 -1723.29 260.252 157.775
lowerback 39.1977 -3.24936 0.716904
upperback 12.0516 -5.69846 -3.78635
thorax -6.07394 -3.46661 -2.11047
lowerneck 9.21837 2.68627 -1.46658
upperneck 0.924278 3.31959 -2.24129
head -1.24336 1.67872 -0.576829
rclavicle -7.95139e-016 -3.06128e-014
rhumerus -401.802 35.0493 274.165
rradius 67.9972
rwrist 3.75379
rhand -43.7975 755.554
rfingers 7.12502
rthumb -16.6263 726.246
lclavicle -7.95139e-016 -3.06128e-014
lhumerus -544.148 186.554 -483.054
lradius 81.8074
lwrist 5.12848
lhand -13.9829 -727.057
lfingers 7.12502
lthumb 12.1456 22.5703
rfemur -580.476 -177.467 550.626
rtibia 76.2579
rfoot 1.92758 -3.78315
rtoes 29.1645
lfemur -7.75627 741.028 -19.3613
ltibia 88.2786
lfoot 18.6279 477.444
ltoes -34.035
272
root 18.0566 2.2481 0.26481 -1722.51 260.212 156.945
lowerback 39.3909 -3.28676 0.728773
upperback 11.6363 -5.71195 -3.76791
thorax -6.59459 -3.4427 -2.06083
lowerneck 9.27575 2.67321 -1.57507
upperneck 0.0627188 3.27711 -2.24314
head -1.53505 1.67264 -0.569701
rclavicle 3.26007e-014 -5.80451e-014
rhumerus -401.23 34.3654 275.193
rradius 70.2449
rwrist 3.4779
rhand -44.1096 755.841
rfingers 7.12502
rthumb -16.9267 726.558
lclavicle 3.26007e-014 -5.80451e-014
lhumerus -544.387 186.886 -483.598
lradius 84.4133
lwrist 6.15492
lhand -14.8482 -727.137
lfingers 7.12502
lthumb 11.3111 22.5377
rfemur -580.99 -177.291 550.491
rtibia 76.0061
rfoot 1.63164 -3.36077
rtoes 28.4336
lfemur -7.83263 741.445 -18.9894
ltibia 88.5964
lfoot 19.128 476.883
ltoes -34.2219
273
root 18.0792 2.26216 0.27519 -1721.8 260.145 156.187
lowerback 39.5881 -3.30937 0.711904
upperback 11.2387 -5.7213 -3.76241
thorax -7.097 -3.4184 -2.01315
lowerneck 9.25924 2.6579 -1.61125
upperneck -0.696112 3.23992 -2.2919
head -1.78072 1.66776 -0.587105
rclavicle 4.05521e-014 -1.90634e-013
rhumerus -400.611 33.8231 276.194
rradius 72.4154
rwrist 3.1903
rhand -44.437 756.168
rfingers 7.12502
rthumb -17.2418 726.913
lclavicle 4.05521e-014 -1.90634e-013
lhumerus -544.528 187.201 -484.214
lradius 87.0347
lwrist 7.33343
lhand -15.8147 -727.227
lfingers 7.12502
lthumb 10.3789 22.4967
rfemur -581.47 -177.126 550.344
rtibia 75.7426
rfoot 1.32514 -3.0533
rtoes 27.6997
lfemur -7.89466 741.858 -18.6556
ltibia 88.8884
lfoot 19.3178 476.368
ltoes -34.6106
274
root 18.1026 2.27333 0.284469 -1721.13 260.088 155.476
lowerback 39.7703 -3.32314 0.676072
upperback 10.8849 -5.72962 -3.7403
thorax -7.54333 -3.39763 -1.94218
lowerneck 9.12124 2.65641 -1.7409
upperneck -1.34191 3.21735 -2.27185
head -1.97148 1.66617 -0.563956
rclavicle -3.49861e-014 3.63776e-014
rhumerus -399.923 33.446 277.24
rradius 74.6153
rwrist 2.69786
rhand -44.668 756.667
rfingers 7.12502
rthumb -17.4642 727.432
lclavicle -3.49861e-014 3.63776e-014
lhumerus -544.513 187.436 -484.866
lradius 89.6184
lwrist 8.64019
lhand -16.852 -727.403
lfingers 7.12502
lthumb 9.37814 22.3688
rfemur -581.899 -176.941 550.22
rtibia 75.5083
rfoot 1.04177 -2.82883
rtoes 26.8963
lfemur -7.92111 742.303 -18.2749
ltibia 89.1593
lfoot 19.4858 475.863
ltoes -34.7132
